<?xml version="1.0" encoding="UTF-8"?>
<svg width="24" height="24" viewBox="0 0 24 24" fill="none" xmlns="http://www.w3.org/2000/svg">
  <path d="M12 22C17.5228 22 22 17.5228 22 12C22 6.47715 17.5228 2 12 2C6.47715 2 2 6.47715 2 12C2 17.5228 6.47715 22 12 22Z" stroke="white" stroke-width="2" stroke-linecap="round" stroke-linejoin="round"/>
  <path d="M12 9C13.6569 9 15 7.65685 15 6" stroke="white" stroke-width="2" stroke-linecap="round"/>
  <path d="M9 12C9 13.6569 7.65685 15 6 15" stroke="white" stroke-width="2" stroke-linecap="round"/>
  <path d="M12 15C13.6569 15 15 16.3431 15 18" stroke="white" stroke-width="2" stroke-linecap="round"/>
  <path d="M15 12C16.6569 12 18 13.3431 18 15" stroke="white" stroke-width="2" stroke-linecap="round"/>
  <circle cx="12" cy="12" r="2" stroke="white" stroke-width="2"/>
</svg> 