<?xml version="1.0" encoding="UTF-8"?>
<svg width="20" height="20" viewBox="0 0 20 20" fill="none" xmlns="http://www.w3.org/2000/svg">
  <path d="M13.3333 17.5V15.8333C13.3333 14.9493 12.9821 14.1014 12.357 13.4763C11.7319 12.8512 10.8841 12.5 9.99999 12.5H4.99999C4.11593 12.5 3.26809 12.8512 2.64297 13.4763C2.01785 14.1014 1.66666 14.9493 1.66666 15.8333V17.5" stroke="#FF9533" stroke-width="1.5" stroke-linecap="round" stroke-linejoin="round"/>
  <path d="M7.49999 9.16667C9.34094 9.16667 10.8333 7.67428 10.8333 5.83333C10.8333 3.99238 9.34094 2.5 7.49999 2.5C5.65904 2.5 4.16666 3.99238 4.16666 5.83333C4.16666 7.67428 5.65904 9.16667 7.49999 9.16667Z" stroke="#FF9533" stroke-width="1.5" stroke-linecap="round" stroke-linejoin="round"/>
  <path d="M18.3333 17.5V15.8333C18.3328 15.0948 18.087 14.3773 17.6345 13.7936C17.182 13.2099 16.5484 12.793 15.8333 12.6083" stroke="#FF9533" stroke-width="1.5" stroke-linecap="round" stroke-linejoin="round"/>
  <path d="M13.3333 2.60833C14.0503 2.79192 14.686 3.20892 15.1399 3.79359C15.5937 4.37827 15.8398 5.09736 15.8398 5.8375C15.8398 6.57764 15.5937 7.29673 15.1399 7.88141C14.686 8.46608 14.0503 8.88308 13.3333 9.06667" stroke="#FF9533" stroke-width="1.5" stroke-linecap="round" stroke-linejoin="round"/>
</svg> 