<?xml version="1.0" encoding="UTF-8"?>
<svg width="24" height="24" viewBox="0 0 24 24" fill="none" xmlns="http://www.w3.org/2000/svg">
  <path d="M12 21C16.9706 21 21 16.9706 21 12C21 7.02944 16.9706 3 12 3C7.02944 3 3 7.02944 3 12C3 16.9706 7.02944 21 12 21Z" stroke="#FF4D6B" stroke-width="1.5" stroke-linecap="round" stroke-linejoin="round"/>
  <path d="M3.6 9H20.4" stroke="#FF4D6B" stroke-width="1.5" stroke-linecap="round" stroke-linejoin="round"/>
  <path d="M3.6 15H20.4" stroke="#FF4D6B" stroke-width="1.5" stroke-linecap="round" stroke-linejoin="round"/>
  <path d="M12 3C14.5 5.5 15.7532 8.67157 15.7532 12C15.7532 15.3284 14.5 18.5 12 21" stroke="#FF4D6B" stroke-width="1.5" stroke-linecap="round" stroke-linejoin="round"/>
  <path d="M12 3C9.5 5.5 8.24683 8.67157 8.24683 12C8.24683 15.3284 9.5 18.5 12 21" stroke="#FF4D6B" stroke-width="1.5" stroke-linecap="round" stroke-linejoin="round"/>
</svg> 